# xmcd CD database file
#
# Track frame offsets:
#	150
#	21037
#	38707
#	57137
#	74595
#	89170
#	109045
#
# Disc length: 1627 seconds
#
# Revision: 0
# Processed by: cddbd v1.5.1PL0 Copyright (c) Steve Scherf et al.
# Submitted via: CDex 1.51
#
DISCID=5b065907
DTITLE=Type Akico from Amasia Landscape - D.A.I WORKS NEUTRAL
DYEAR=2005
DGENRE=Pop
TTITLE0=Heads up High
TTITLE1=Just a Word
TTITLE2=Flyout feat. GICODE
TTITLE3=Right Here
TTITLE4=Play That Number
TTITLE5=Lame Game You Played
TTITLE6=Shattered Star
EXTD=YEAR: 2005
EXTT0=
EXTT1=
EXTT2=
EXTT3=
EXTT4=
EXTT5=
EXTT6=
PLAYORDER=
